<svg width="30" height="30" viewBox="0 0 30 30" fill="none" xmlns="http://www.w3.org/2000/svg">
<g clip-path="url(#clip0)">
<path d="M15 29.999C23.2843 29.999 30 23.2833 30 14.999C30 6.71472 23.2843 -0.00100708 15 -0.00100708C6.71573 -0.00100708 0 6.71472 0 14.999C0 23.2833 6.71573 29.999 15 29.999Z" fill="#071E48"/>
<path d="M23.9623 16.2067V22.3909H20.3769V16.6212C20.3769 15.1725 19.8593 14.1831 18.5611 14.1831C17.5704 14.1831 16.9819 14.8492 16.722 15.4941C16.6276 15.7246 16.6033 16.0447 16.6033 16.368V22.3906H13.0176C13.0176 22.3906 13.0657 12.6186 13.0176 11.6071H16.6035V13.1352C16.5963 13.1473 16.5861 13.159 16.5797 13.1705H16.6035V13.1352C17.08 12.4021 17.9298 11.3539 19.8349 11.3539C22.1938 11.3539 23.9623 12.8951 23.9623 16.2067ZM9.26663 6.40906C8.04012 6.40906 7.23769 7.21417 7.23769 8.27196C7.23769 9.30729 8.01686 10.1357 9.21957 10.1357H9.24284C10.4934 10.1357 11.271 9.30729 11.271 8.27196C11.2472 7.21417 10.4934 6.40906 9.26663 6.40906ZM7.4508 22.3909H11.0351V11.6071H7.4508V22.3909Z" fill="#F1F2F2"/>
</g>
<defs>
<clipPath id="clip0">
<rect width="30" height="30" fill="white"/>
</clipPath>
</defs>
</svg>
