<svg width="33" height="33" viewBox="0 0 33 33" fill="none" xmlns="http://www.w3.org/2000/svg">
<path d="M22.582 14.3174C20.9524 14.3174 20.4286 15.8889 20.3122 16.8201V16.8783L20.0794 17.7513C20.7778 18.3333 21.6508 18.7407 22.5238 18.7407C23.6878 18.7407 24.7355 17.7513 24.7937 16.4709C24.7937 15.3069 23.8042 14.3174 22.582 14.3174Z" fill="#071E48"/>
<path d="M16.8201 2.15344C8.84656 2.15344 2.38625 8.61376 2.38625 16.5873C2.38625 24.5608 8.84656 31.0212 16.8201 31.0212C24.7937 31.0212 31.254 24.5608 31.254 16.5873C31.254 8.61376 24.7937 2.15344 16.8201 2.15344ZM22.582 21.0106C21.418 21.0106 20.4286 20.6614 19.5556 20.1376L18.5661 24.7936H16.2963L17.6931 18.3915C17.1111 17.5767 16.5291 16.6455 16.1217 15.7725V16.7619C16.1217 19.1481 14.2011 21.0688 11.873 21.0688C9.54498 21.0688 7.62434 19.1481 7.62434 16.7619V10.9418H9.83598V16.7619C9.83598 17.9259 10.7672 18.8571 11.9312 18.8571C13.0952 18.8571 14.0265 17.9259 14.0265 16.7619V10.9418H16.2381C16.7037 12.3968 17.4603 14.1429 18.4497 15.7143C19.0317 13.5026 20.6614 12.164 22.6984 12.164C25.0847 12.164 27.0635 14.1429 27.0635 16.5291C26.9471 19.0317 24.9683 21.0106 22.582 21.0106Z" fill="#071E48"/>
</svg>
